<svg version="1.0" xmlns="http://www.w3.org/2000/svg"
 width="45" height="40" viewBox="-10 -130 300 90">
<g transform="translate(0,55) scale(0.054,-0.054)"
fill="#000000" stroke="none">
<path d="M3127 5088 c-5 -12 -29 -97 -53 -189 -61 -234 -104 -247 -329 -104
l-158 100 -256 -255 c-275 -275 -273 -269 -181 -380 158 -191 143 -313 -43
-355 -64 -14 -148 -35 -187 -45 l-70 -19 0 -349 c0 -405 -21 -361 201 -418
249 -65 263 -100 125 -328 l-99 -164 252 -254 253 -254 84 47 c46 26 115 68
152 93 158 107 221 50 282 -257 l22 -113 364 6 364 5 16 78 c80 366 112 388
351 242 l165 -102 257 256 258 257 -100 158 c-100 160 -114 297 -30 296 12 0
97 19 188 43 l165 43 0 356 0 356 -73 20 c-41 12 -123 32 -182 45 -183 41
-196 103 -68 316 l100 167 -253 253 -254 253 -157 -96 c-238 -146 -278 -130
-342 133 l-43 174 -356 3 c-242 3 -360 -3 -365 -18z m613 -233 c58 -256 53
-247 145 -274 47 -13 105 -37 129 -52 39 -26 56 -20 196 65 l152 94 163 -164
163 -163 -48 -85 c-26 -47 -65 -110 -86 -139 -44 -60 -37 -115 32 -255 43 -88
46 -89 209 -127 l165 -38 0 -235 0 -234 -155 -37 c-185 -45 -173 -36 -244
-186 l-57 -120 59 -88 c32 -48 73 -117 91 -153 l32 -67 -164 -159 -163 -160
-150 93 c-141 88 -152 92 -196 63 -25 -17 -84 -42 -130 -55 -89 -27 -85 -19
-142 -269 l-23 -100 -234 4 -234 3 -38 164 c-36 157 -40 164 -110 192 -39 15
-101 42 -136 60 -52 26 -71 28 -95 8 -16 -14 -81 -56 -144 -94 l-115 -69 -165
166 -165 166 89 146 90 146 -59 133 -58 133 -162 40 -162 40 0 236 c0 228 1
236 45 246 25 6 98 22 162 36 l117 26 58 136 58 137 -89 142 -90 143 167 168
168 168 145 -91 144 -90 103 45 c56 25 116 50 133 55 19 7 44 68 67 168 20 86
41 164 46 172 4 8 110 15 235 15 l227 0 24 -105z" fill="url(#paint0_linear)"/>
<path d="M3240 4342 c-654 -211 -866 -990 -402 -1476 583 -611 1590 -160 1537
689 -35 555 -613 956 -1135 787z m508 -177 c391 -153 577 -598 406 -972 -265
-579 -1054 -593 -1327 -24 -282 588 315 1233 921 996z" fill="url(#paint0_linear)"/>
<path d="M1467 3567 c-38 -171 -42 -178 -115 -213 l-75 -35 -113 64 c-63 36
-145 86 -182 111 -37 25 -74 46 -81 46 -12 0 -581 -560 -581 -572 0 -3 49 -84
110 -181 120 -191 124 -203 81 -285 -30 -57 -29 -57 -356 -142 l-95 -25 0
-406 c0 -370 3 -407 35 -416 19 -5 117 -29 217 -53 266 -63 283 -117 120 -383
l-114 -185 288 -288 288 -288 58 32 c32 18 116 69 187 113 205 129 271 89 340
-206 l45 -196 411 6 411 5 53 210 c76 298 115 313 387 151 l191 -114 281 286
c155 158 282 291 282 296 0 6 -50 92 -110 192 l-111 183 31 72 c32 77 40 81
292 135 l112 24 -19 78 c-23 91 -3 89 -254 28 -216 -52 -241 -62 -241 -95 0
-11 -23 -73 -52 -137 l-52 -116 105 -174 104 -173 -198 -198 -198 -199 -163
101 c-192 118 -163 114 -336 41 l-139 -58 -50 -192 -50 -192 -280 5 -279 6
-48 195 c-33 132 -58 195 -77 195 -16 0 -73 23 -127 50 -130 66 -132 66 -316
-49 l-160 -99 -200 196 -201 195 107 178 107 177 -36 71 c-20 39 -46 104 -59
145 -24 74 -24 74 -223 118 l-199 45 0 283 0 284 199 45 c198 45 199 45 223
118 13 40 41 108 62 150 33 66 35 82 11 110 -48 58 -175 278 -175 303 0 13 86
108 192 211 l191 187 160 -99 c186 -115 187 -115 317 -49 54 28 111 50 126 50
31 0 157 439 134 466 -7 8 -45 21 -83 27 l-70 11 -40 -177z" fill="url(#paint0_linear)"/>
<path d="M843 3013 l-66 -68 67 -52 66 -52 60 59 59 60 -60 60 -60 61 -66 -68z" fill="url(#paint0_linear)"/>
<path d="M1800 2946 c-938 -155 -1206 -1355 -418 -1873 613 -402 1430 -31
1569 712 l13 75 -89 0 -90 0 -12 -88 c-85 -625 -916 -912 -1404 -486 -527 459
-275 1384 406 1486 l85 13 0 87 c0 49 -2 87 -5 85 -3 -1 -27 -6 -55 -11z" fill="url(#paint0_linear)"/>
<path d="M400 1930 l0 -90 80 0 80 0 0 90 0 90 -80 0 -80 0 0 -90z" fill="url(#paint0_linear)"/>
<path d="M843 965 l-66 -55 68 -65 67 -65 58 60 58 61 -59 60 -60 59 -66 -55z" fill="url(#paint0_linear)"/>
<path d="M2900 959 l-70 -59 60 -50 c72 -60 66 -60 140 0 l60 49 -60 60 -60
59 -70 -59z" fill="url(#paint0_linear)"/>
<path d="M1840 480 l0 -80 90 0 90 0 0 80 0 80 -90 0 -90 0 0 -80z" fill="url(#paint0_linear)"/>
</g>
  <defs>
    <linearGradient id="paint0_linear" x1="2.12767" y1="1" x2="30.7018" y2="17.5237" gradientUnits="userSpaceOnUse">
      <stop offset="0.259336" stop-color="#FFDB6E"/>
      <stop offset="1" stop-color="#FFBC5E"/>
    </linearGradient>
    <linearGradient id="paint1_linear" x1="1.59976" y1="8.08974e-07" x2="31.8368" y2="17.6727" gradientUnits="userSpaceOnUse">
      <stop offset="0.259336" stop-color="#FFDB6E"/>
      <stop offset="1" stop-color="#FFBC5E"/>
    </linearGradient>
  </defs>
</svg>
